<svg width="153" height="69" viewBox="0 0 153 69" fill="none" xmlns="http://www.w3.org/2000/svg">
<path d="M3.66055 20.9136C5.94839 20.9136 7.25573 20.251 7.25573 19.07V12.1276H17.3222C26.0814 12.1276 33.5332 10.6584 33.5332 6.25103C33.5332 1.90124 26.0814 0.374486 17.3222 0.374486H3.85665C1.37271 0.374486 0 0.979425 0 2.07407V19.07C0 20.251 1.37271 20.9136 3.66055 20.9136ZM7.25573 9.44856V3.0535H17.3222C23.5975 3.0535 26.0814 4.29218 26.0814 6.25103C26.0814 8.20988 23.5321 9.44856 17.3222 9.44856H7.25573Z" fill="black"/>
<path d="M56.617 21C67.9908 21 73.8738 18.0329 73.8738 12.9918V1.84362C73.8738 0.662552 72.5011 0 70.2133 0C67.9254 0 66.6181 0.662552 66.6181 1.84362V12.5885C66.6181 16.3045 63.2844 18.321 56.617 18.321C49.9495 18.321 46.6812 16.3333 46.6812 12.5885V1.84362C46.6812 0.662552 45.3085 0 43.0206 0C40.7328 0 39.4255 0.662552 39.4255 1.84362V12.9918C39.4255 18.0329 45.2431 21 56.617 21Z" fill="black"/>
<path d="M87.0381 20.5391H111.551C113.773 20.5391 115.146 20.0206 115.146 19.1852C115.146 18.321 113.773 17.8313 111.551 17.8313H90.4372V1.84362C90.4372 0.662552 89.0645 0 86.7766 0C84.4888 0 83.1815 0.662552 83.1815 1.84362V18.8395C83.1815 19.9342 84.5542 20.5391 87.0381 20.5391Z" fill="black"/>
<path d="M124.892 20.5391H149.405C151.627 20.5391 153 20.0206 153 19.1852C153 18.321 151.627 17.8313 149.405 17.8313H128.291V1.84362C128.291 0.662552 126.919 0 124.631 0C122.343 0 121.036 0.662552 121.036 1.84362V18.8395C121.036 19.9342 122.408 20.5391 124.892 20.5391Z" fill="black"/>
<path d="M1.95554 66.3509C3.19996 66.3509 3.94662 64.985 3.94662 62.5502V48.0604H9.06655C12.4443 48.0604 13.7598 49.9607 13.7598 55.721V62.5502C13.7598 64.985 14.4709 66.3509 15.7154 66.3509C16.9598 66.3509 17.7064 64.985 17.7064 62.5502V54.5927C17.7064 49.1887 16.1065 45.8037 13.5109 45.0317C15.822 43.9034 18.1687 40.3997 18.1687 34.9363C18.1687 27.8102 14.9687 24.0095 10.2754 24.0095H2.09775C0.746659 24.0095 0 25.2566 0 27.5132V62.5502C0 64.985 0.711107 66.3509 1.95554 66.3509ZM3.94662 42.4188V29.5323H9.42211C12.4798 29.5323 14.1154 31.7296 14.1154 35.9459C14.1154 40.1622 12.4798 42.4188 9.42211 42.4188H3.94662Z" fill="black"/>
<path d="M24.8827 65.5789H38.3581C39.6025 65.5789 40.3136 64.5099 40.3136 62.7878C40.3136 61.0062 39.6025 59.9967 38.3581 59.9967H26.7316V47.0508H37.327C38.5359 47.0508 39.2825 45.9819 39.2825 44.2597C39.2825 42.4782 38.5359 41.4687 37.327 41.4687H26.7316V29.5323H37.8959C39.1403 29.5323 39.8514 28.5228 39.8514 26.7412C39.8514 25.0191 39.1403 24.0095 37.8959 24.0095H24.8827C23.5316 24.0095 22.785 25.2566 22.785 27.5132V62.0752C22.785 64.3318 23.5316 65.5789 24.8827 65.5789Z" fill="black"/>
<path d="M53.4527 66.529C55.2304 66.529 56.8304 65.8758 58.2526 64.6287L59.6392 67.5386C60.2792 68.845 60.9548 69.2607 61.5948 68.845C62.4481 68.37 63.4792 66.6478 62.3059 64.213L60.8837 61.2438C62.9814 57.4432 64.1903 51.8016 64.1903 44.7942C64.1903 31.6702 59.9237 23 53.4527 23C46.9816 23 42.715 31.6702 42.715 44.7942C42.715 58.0964 47.0172 66.529 53.4527 66.529ZM46.8394 44.7942C46.8394 34.8176 49.3638 28.5822 53.4527 28.5822C57.5059 28.5822 60.0659 34.8176 60.0659 44.7942C60.0659 49.545 59.497 53.405 58.4659 56.1961L56.7948 52.7518C56.1548 51.4453 55.5149 51.089 54.8393 51.5047C54.0215 51.9204 52.9904 53.7019 54.1282 56.0773L56.0126 59.9967C55.266 60.6499 54.3771 61.0062 53.4527 61.0062C49.3994 61.0062 46.8394 54.8302 46.8394 44.7942Z" fill="black"/>
<path d="M77.1196 66.529C83.3062 66.529 86.5061 60.4124 86.5061 50.0201V27.0382C86.5061 24.6034 85.7595 23.2375 84.515 23.2375C83.2706 23.2375 82.5595 24.6034 82.5595 27.0382V49.1887C82.5595 56.8493 80.7462 61.0062 77.1196 61.0062C73.493 61.0062 71.7152 56.9087 71.7152 49.1887V27.0382C71.7152 24.6034 70.9685 23.2375 69.7241 23.2375C68.4797 23.2375 67.7686 24.6034 67.7686 27.0382V50.0201C67.7686 60.4124 70.933 66.529 77.1196 66.529Z" fill="black"/>
<path d="M93.6666 65.5789H107.142C108.386 65.5789 109.098 64.5099 109.098 62.7878C109.098 61.0062 108.386 59.9967 107.142 59.9967H95.5154V47.0508H106.111C107.32 47.0508 108.066 45.9819 108.066 44.2597C108.066 42.4782 107.32 41.4687 106.111 41.4687H95.5154V29.5323H106.68C107.924 29.5323 108.635 28.5228 108.635 26.7412C108.635 25.0191 107.924 24.0095 106.68 24.0095H93.6666C92.3155 24.0095 91.5688 25.2566 91.5688 27.5132V62.0752C91.5688 64.3318 92.3155 65.5789 93.6666 65.5789Z" fill="black"/>
<path d="M121.555 66.529C127.528 66.529 131.191 60.9469 131.191 53.6425C131.191 47.0508 128.239 43.5471 124.328 42.0031L120.595 40.5779C117.822 39.4496 116.293 37.8462 116.293 34.4613C116.293 30.8982 118.462 28.5822 121.235 28.5822C123.937 28.5822 125.751 30.6606 126.426 33.9862C126.853 35.8271 127.493 36.8366 128.559 36.8366C129.911 36.8366 131.013 34.6988 129.946 30.7794C128.631 26.0286 125.608 23 121.377 23C116.186 23 112.275 28.0477 112.275 35.0551C112.275 41.528 115.369 45.2693 119.137 46.6945L122.622 48.001C125.502 49.1293 127.173 50.7921 127.173 54.3552C127.173 58.5715 124.933 61.0062 121.697 61.0062C118.746 61.0062 116.471 58.6309 115.724 54.2364C115.369 52.2173 114.8 51.0296 113.662 51.0296C112.204 51.0296 111.102 53.2862 112.062 57.3244C113.413 63.0253 116.791 66.529 121.555 66.529Z" fill="black"/>
<path d="M142.653 66.3509C143.898 66.3509 144.609 64.985 144.609 62.5502V29.5323H151.044C152.253 29.5323 153 28.5228 153 26.7412C153 25.0191 152.253 24.0095 151.044 24.0095H134.227C133.018 24.0095 132.271 25.0191 132.271 26.8006C132.271 28.5228 133.018 29.5323 134.227 29.5323H140.662V62.5502C140.662 64.985 141.409 66.3509 142.653 66.3509Z" fill="black"/>
</svg>
