<svg width="5616" height="612" viewBox="0 0 5616 612" fill="none" xmlns="http://www.w3.org/2000/svg">
<path d="M44.6872 576.253C72.292 576.253 88.0662 558.113 88.0662 525.776V335.697H209.528C315.215 335.697 405.128 295.473 405.128 174.8C405.128 55.7048 315.215 13.9032 209.528 13.9032H47.0533C17.0823 13.9032 0.519409 30.4661 0.519409 60.4371V525.776C0.519409 558.113 17.0823 576.253 44.6872 576.253ZM88.0662 262.347V87.2532H209.528C285.244 87.2532 315.215 121.168 315.215 174.8C315.215 228.432 284.455 262.347 209.528 262.347H88.0662Z" fill="white"/>
<path d="M683.653 578.62C820.889 578.62 891.873 497.382 891.873 359.358V54.1274C891.873 21.7903 875.31 3.64992 847.705 3.64992C820.1 3.64992 804.326 21.7903 804.326 54.1274V348.316C804.326 450.06 764.102 505.27 683.653 505.27C603.205 505.27 563.769 450.849 563.769 348.316V54.1274C563.769 21.7903 547.206 3.64992 519.602 3.64992C491.997 3.64992 476.223 21.7903 476.223 54.1274V359.358C476.223 497.382 546.418 578.62 683.653 578.62Z" fill="white"/>
<path d="M1050.71 566H1346.48C1373.29 566 1389.86 551.803 1389.86 528.931C1389.86 505.27 1373.29 491.862 1346.48 491.862H1091.72V54.1274C1091.72 21.7903 1075.16 3.64992 1047.56 3.64992C1019.95 3.64992 1004.18 21.7903 1004.18 54.1274V519.466C1004.18 549.437 1020.74 566 1050.71 566Z" fill="white"/>
<path d="M1507.45 566H1803.22C1830.04 566 1846.6 551.803 1846.6 528.931C1846.6 505.27 1830.04 491.862 1803.22 491.862H1548.47V54.1274C1548.47 21.7903 1531.9 3.64992 1504.3 3.64992C1476.7 3.64992 1460.92 21.7903 1460.92 54.1274V519.466C1460.92 549.437 1477.48 566 1507.45 566Z" fill="white"/>
<path d="M2265.12 576.253C2292.72 576.253 2309.28 558.113 2309.28 525.776V333.331H2422.86C2497.79 333.331 2526.97 358.569 2526.97 435.074V525.776C2526.97 558.113 2542.74 576.253 2570.35 576.253C2597.95 576.253 2614.51 558.113 2614.51 525.776V420.089C2614.51 348.316 2579.02 303.36 2521.45 293.107C2572.71 278.121 2624.77 231.587 2624.77 159.026C2624.77 64.3806 2553.78 13.9032 2449.67 13.9032H2268.27C2238.3 13.9032 2221.74 30.4661 2221.74 60.4371V525.776C2221.74 558.113 2237.51 576.253 2265.12 576.253ZM2309.28 258.403V87.2532H2430.74C2498.57 87.2532 2534.85 116.435 2534.85 172.434C2534.85 228.432 2498.57 258.403 2430.74 258.403H2309.28Z" fill="white"/>
<path d="M2773.7 566H3072.63C3100.23 566 3116 551.803 3116 528.931C3116 505.27 3100.23 491.862 3072.63 491.862H2814.72V319.923H3049.75C3076.57 319.923 3093.13 305.726 3093.13 282.853C3093.13 259.192 3076.57 245.784 3049.75 245.784H2814.72V87.2532H3062.37C3089.98 87.2532 3105.75 73.8452 3105.75 50.1838C3105.75 27.3113 3089.98 13.9032 3062.37 13.9032H2773.7C2743.73 13.9032 2727.17 30.4661 2727.17 60.4371V519.466C2727.17 549.437 2743.73 566 2773.7 566Z" fill="white"/>
<path d="M3407.46 578.62C3446.9 578.62 3482.39 569.944 3513.94 553.381L3544.7 592.028C3558.9 609.379 3573.88 614.9 3588.08 609.379C3607.01 603.07 3629.88 580.197 3603.85 547.86L3572.3 508.424C3618.84 457.947 3645.65 383.02 3645.65 289.952C3645.65 115.647 3551.01 0.495117 3407.46 0.495117C3263.92 0.495117 3169.27 115.647 3169.27 289.952C3169.27 466.623 3264.71 578.62 3407.46 578.62ZM3260.76 289.952C3260.76 157.448 3316.76 74.6339 3407.46 74.6339C3497.38 74.6339 3554.16 157.448 3554.16 289.952C3554.16 353.049 3541.54 404.315 3518.67 441.384L3481.6 395.639C3467.41 378.287 3453.21 373.555 3438.22 379.076C3420.08 384.597 3397.21 408.258 3422.45 439.807L3464.25 491.862C3447.69 500.537 3427.97 505.27 3407.46 505.27C3317.55 505.27 3260.76 423.244 3260.76 289.952Z" fill="white"/>
<path d="M3932.46 578.62C4069.7 578.62 4140.68 497.382 4140.68 359.358V54.1274C4140.68 21.7903 4124.12 3.64992 4096.51 3.64992C4068.91 3.64992 4053.13 21.7903 4053.13 54.1274V348.316C4053.13 450.06 4012.91 505.27 3932.46 505.27C3852.01 505.27 3812.58 450.849 3812.58 348.316V54.1274C3812.58 21.7903 3796.01 3.64992 3768.41 3.64992C3740.8 3.64992 3725.03 21.7903 3725.03 54.1274V359.358C3725.03 497.382 3795.23 578.62 3932.46 578.62Z" fill="white"/>
<path d="M4299.52 566H4598.44C4626.05 566 4641.82 551.803 4641.82 528.931C4641.82 505.27 4626.05 491.862 4598.44 491.862H4340.53V319.923H4575.57C4602.38 319.923 4618.95 305.726 4618.95 282.853C4618.95 259.192 4602.38 245.784 4575.57 245.784H4340.53V87.2532H4588.19C4615.79 87.2532 4631.57 73.8452 4631.57 50.1838C4631.57 27.3113 4615.79 13.9032 4588.19 13.9032H4299.52C4269.55 13.9032 4252.99 30.4661 4252.99 60.4371V519.466C4252.99 549.437 4269.55 566 4299.52 566Z" fill="white"/>
<path d="M4918.16 578.62C5050.67 578.62 5131.9 504.481 5131.9 407.47C5131.9 319.923 5066.44 273.389 4979.68 252.882L4896.87 233.953C4835.35 218.968 4801.43 197.673 4801.43 152.716C4801.43 105.394 4849.55 74.6339 4911.07 74.6339C4971.01 74.6339 5011.23 102.239 5026.22 146.406C5035.68 170.856 5049.88 184.265 5073.54 184.265C5103.51 184.265 5127.96 155.871 5104.3 103.816C5075.12 40.7193 5008.08 0.495117 4914.22 0.495117C4799.07 0.495117 4712.31 67.5355 4712.31 160.603C4712.31 246.573 4780.93 296.261 4864.53 315.19L4941.83 332.542C5005.71 347.528 5042.78 369.611 5042.78 416.934C5042.78 472.932 4993.09 505.27 4921.32 505.27C4855.86 505.27 4805.38 473.721 4788.82 415.357C4780.93 388.54 4768.31 372.766 4743.07 372.766C4710.73 372.766 4686.28 402.737 4707.58 456.37C4737.55 532.086 4812.48 578.62 4918.16 578.62Z" fill="white"/>
<path d="M5386.18 576.253C5413.79 576.253 5429.56 558.113 5429.56 525.776V87.2532H5572.32C5599.13 87.2532 5615.7 73.8452 5615.7 50.1838C5615.7 27.3113 5599.13 13.9032 5572.32 13.9032H5199.26C5172.44 13.9032 5155.88 27.3113 5155.88 50.9725C5155.88 73.8452 5172.44 87.2532 5199.26 87.2532H5342.02V525.776C5342.02 558.113 5358.58 576.253 5386.18 576.253Z" fill="white"/>
</svg>
